<?xml version="1.0" encoding="UTF-8"?>
<svg width="68px" height="67px" viewBox="0 0 68 67" version="1.1" xmlns="http://www.w3.org/2000/svg" xmlns:xlink="http://www.w3.org/1999/xlink">
    <!-- Generator: Sketch 48.2 (47327) - http://www.bohemiancoding.com/sketch -->
    <title>atomic</title>
    <desc>Created with Sketch.</desc>
    <defs>
        <path d="M35.2177532,26.6282051 C30.4815639,26.6282051 26.6282051,30.4816223 26.6282051,35.2178836 C26.6282051,39.9544054 30.4815639,43.8076923 35.2177532,43.8076923 C39.9543336,43.8076923 43.8076923,39.9542751 43.8076923,35.2178836 C43.807562,30.4816223 39.9543336,26.6282051 35.2177532,26.6282051 Z M35.2177532,40.5574345 C32.273551,40.5574345 29.8784136,38.1621305 29.8784136,35.2178836 C29.8784136,32.2736366 32.2736813,29.8784629 35.2177532,29.8784629 C38.1619555,29.8784629 40.5573535,32.273767 40.5573535,35.2178836 C40.5573535,38.1620001 38.1620858,40.5574345 35.2177532,40.5574345 Z" id="path-1"></path>
        <path d="M67.6333247,19.9305076 C68.2766589,15.2215781 67.5381632,11.2162818 65.4973597,8.25772231 C65.8313528,7.52332998 66.0188925,6.70933337 66.0188925,5.85203626 C66.0188925,2.62522487 63.3833959,0 60.1436634,0 C57.9544186,0 56.0421759,1.19987272 55.0315819,2.97308102 C49.4967077,2.69756839 42.7199624,4.72331894 35.705446,8.75963848 C23.7291449,1.8654859 12.885902,1.03736382 7.26103511,6.64200637 C4.81639164,9.07699947 3.55026645,12.5611056 3.55609808,16.7703631 C1.46652101,17.6681884 0,19.7394837 0,22.1462259 C0,25.3730373 2.63562917,27.9982621 5.87522909,27.9982621 C5.90929107,27.9982621 5.94282291,27.9962819 5.97675237,27.9956219 C6.88038908,30.2847398 8.02338747,32.6236269 9.38692729,34.9741312 C2.46545177,46.9030231 1.63418021,57.7034617 7.26077004,63.3061241 C9.743054,65.7792691 13.2403057,67.000132 17.4034228,67 C22.6749463,66.999868 29.0137895,65.0405203 35.7053135,61.188756 C42.3973676,65.0409164 48.7355481,67 54.0076017,67 C58.1705863,67 61.6688983,65.7792691 64.1514473,63.3065201 C69.7776395,57.7024056 68.9449101,46.9014389 62.021579,34.9732071 C65.0667473,29.7224934 67.0037744,24.5388426 67.6333247,19.9305076 Z M60.1436634,3.2922902 C61.5606156,3.2922902 62.7135543,4.44067757 62.7135543,5.85203626 C62.7135543,7.26339496 61.5606156,8.41178232 60.1436634,8.41178232 C58.7267112,8.41178232 57.5737726,7.26339496 57.5737726,5.85203626 C57.5737726,4.44067757 58.7265787,3.2922902 60.1436634,3.2922902 Z M54.2827483,6.24055264 C54.484337,9.28676927 57.0351425,11.7042045 60.1436634,11.7042045 C61.2690344,11.7042045 62.3211125,11.3868436 63.2154716,10.8381945 C64.4389199,13.0507445 64.8344101,16.0009871 64.3582049,19.4868095 C63.8471426,23.2284744 62.3591506,27.4331114 60.0298142,31.7672539 C57.3743045,27.7556209 54.182948,23.8828664 50.512073,20.2262183 C46.8413305,16.5699663 42.9520346,13.3904158 38.9223821,10.7431446 C44.5647438,7.72953541 49.8932581,6.16649295 54.2827483,6.24055264 Z M5.87522909,24.7059719 C4.45827688,24.7059719 3.30533822,23.5577166 3.30533822,22.1462259 C3.30533822,20.7348672 4.45827688,19.5864798 5.87522909,19.5864798 C7.29218129,19.5864798 8.44511995,20.7348672 8.44511995,22.1462259 C8.44525248,23.5575846 7.29231382,24.7059719 5.87522909,24.7059719 Z M9.14186653,27.0077632 C10.7138869,25.9564059 11.7505907,24.1697322 11.7505907,22.1462259 C11.7505907,19.2547293 9.63344596,16.8475911 6.8624966,16.3784144 C6.92942774,13.2416363 7.86209004,10.6994481 9.59832368,8.96993634 C13.8243959,4.75935869 22.641812,5.49969164 32.4858592,10.7448608 C28.4570019,13.3917359 24.5688988,16.5707584 20.8989515,20.2262183 C17.2284741,23.8822063 14.03672,27.7553569 11.3793548,31.768442 C10.5161418,30.1623631 9.76903123,28.5710697 9.14186653,27.0077632 Z M9.59792607,60.9781941 C5.37066103,56.7689366 6.11392808,47.9861957 11.3798849,38.1812726 C14.0371176,42.1940937 17.2287392,46.0668482 20.898819,49.7224402 C24.5688988,53.3779001 28.4570019,56.5569225 32.4857266,59.2037977 C22.6416795,64.4485708 13.8243959,65.1889038 9.59792607,60.9781941 Z M23.2362401,47.3942462 C19.2987008,43.4723825 15.9398176,39.2981087 13.2401731,34.9741312 C15.9395526,30.6502858 19.2985683,26.4761439 23.2362401,22.5540163 C27.1737794,18.6320206 31.3644643,15.2862649 35.7055785,12.5974094 C40.0465602,15.2863969 44.2373776,18.6320206 48.174917,22.5540163 C52.1136491,26.4773321 55.4721346,30.6513419 58.1693935,34.9741312 C55.4722672,39.2966565 52.1137817,43.4709304 48.174917,47.3942462 C44.2373776,51.3162418 40.0465602,54.6619976 35.7055785,57.3508531 C31.3645968,54.6619976 27.1736469,51.3162418 23.2362401,47.3942462 Z M61.8141588,60.9783261 C57.5867612,65.1886397 48.7689474,64.4485708 38.9250328,59.2036656 C42.9537576,56.5569225 46.8418606,53.3779001 50.5119405,49.7223082 C54.1830806,46.0656601 57.374172,42.1929055 60.0295491,38.1815366 C65.2966988,47.9859317 66.0408936,56.7685405 61.8141588,60.9783261 Z" id="path-2"></path>
    </defs>
    <g id="Home-(Blue)" stroke="none" stroke-width="1" fill="none" fill-rule="evenodd" transform="translate(-229.000000, -767.000000)">
        <g id="Features" transform="translate(128.000000, 724.000000)" fill="#FFFFFF" fill-rule="nonzero">
            <g id="Feature">
                <g id="atomic" transform="translate(101.000000, 43.000000)">
                    <g id="Shape">
                        <use fill-opacity="0.8" fill-rule="evenodd" xlink:href="#path-1"></use>
                        <use fill-rule="evenodd" xlink:href="#path-1"></use>
                    </g>
                    <g id="Shape">
                        <use fill-opacity="0.8" fill-rule="evenodd" xlink:href="#path-2"></use>
                        <use fill-rule="evenodd" xlink:href="#path-2"></use>
                    </g>
                </g>
            </g>
        </g>
    </g>
</svg>