<?xml version="1.0" encoding="UTF-8"?>
<svg width="68px" height="67px" viewBox="0 0 68 67" version="1.1" xmlns="http://www.w3.org/2000/svg" xmlns:xlink="http://www.w3.org/1999/xlink">
    <!-- Generator: Sketch 48.2 (47327) - http://www.bohemiancoding.com/sketch -->
    <title>favorites (1)</title>
    <desc>Created with Sketch.</desc>
    <defs></defs>
    <g id="Home-(Blue)" stroke="none" stroke-width="1" fill="none" fill-rule="evenodd" transform="translate(-789.000000, -767.000000)">
        <g id="Features" transform="translate(128.000000, 724.000000)" fill="#FFFFFF" fill-rule="nonzero">
            <g id="Feature-Copy-2" transform="translate(560.000000, 0.000000)">
                <g id="favorites-(1)" transform="translate(101.000000, 43.000000)">
                    <path d="M62.231394,26.188069 C63.4560785,24.9922166 63.8884367,23.2371441 63.360043,21.6077837 C62.8315172,19.9784232 61.4518812,18.813271 59.7594361,18.5670077 L44.9604492,16.4128325 C44.6699648,16.3706198 44.4188457,16.1878741 44.2888608,15.9240112 L37.6705975,2.49068648 C36.9138056,0.954352931 35.3811996,0 33.6709212,0 C31.9606429,0 30.4280369,0.954352931 29.671245,2.49068648 L23.0529817,15.9241435 C22.9228647,16.1878741 22.6718777,16.3706198 22.3812612,16.4129649 L7.58253845,18.5670077 C5.89009339,18.813271 4.5105895,19.9784232 3.98193159,21.6077837 C3.45327368,23.2371441 3.88576394,24.9922166 5.11058056,26.188069 L15.8191396,36.6445324 C16.0293082,36.8499062 16.1253438,37.1456604 16.0756748,37.435592 L13.5477072,52.2002735 C13.2586758,53.8889171 13.9384543,55.5632692 15.3220533,56.5702889 C16.7056522,57.5775732 18.5058896,57.7076521 20.0194734,56.9106377 L33.255868,49.9397062 C33.5158377,49.8027462 33.8261369,49.8027462 34.0862387,49.9397062 L47.3227654,56.9106377 C47.981144,57.2573383 48.6935508,57.4287037 49.4025231,57.4285714 C50.3232491,57.4285714 51.2381628,57.139566 52.0197892,56.5701566 C53.4033882,55.5630046 54.0832988,53.8885201 53.7941353,52.2001411 L51.2661677,37.4354597 C51.2166308,37.145528 51.3125342,36.8497739 51.5227028,36.6444001 L62.231394,26.188069 Z M47.7495754,38.0399362 L50.2775431,52.8048823 C50.362086,53.2989968 50.0575992,53.5807241 49.9227267,53.6787795 C49.7877221,53.7767025 49.4260366,53.9800914 48.9832427,53.746664 L35.7467159,46.7757325 C35.0969238,46.4336634 34.3841207,46.2624303 33.6711854,46.2624303 C32.9582502,46.2624303 32.245315,46.4336634 31.5956549,46.7756001 L18.3592603,53.7463993 C17.9162022,53.9796944 17.5546488,53.7765702 17.4197763,53.6785148 C17.2849038,53.5804594 16.9802848,53.2987321 17.0649599,52.8046176 L19.5929275,38.0399362 C19.8411405,36.5902778 19.3617553,35.1119041 18.3101197,34.0851675 L7.60156062,23.6287041 C7.24317759,23.2785629 7.32428602,22.8713882 7.37593651,22.7125941 C7.4273228,22.5536676 7.60076803,22.1763991 8.09600504,22.1044124 L22.8945957,19.9502372 C24.3475463,19.7387763 25.6031418,18.8251806 26.2530661,17.505998 L32.8713295,4.07254101 C33.0928585,3.6230212 33.5044772,3.57445665 33.6713175,3.57445665 C33.8378937,3.57445665 34.2495124,3.62288887 34.4711735,4.07254101 L34.4711735,4.07267334 L41.0894369,17.5061304 C41.739229,18.8253129 42.9946925,19.7389087 44.4476431,19.9503696 L59.2464979,22.1045447 C59.7417349,22.1765314 59.9150481,22.5537999 59.9665665,22.7127264 C60.0180849,22.8716529 60.0993254,23.2789599 59.7408103,23.6288364 L49.0322512,34.0852998 C47.9807477,35.1119041 47.5013625,36.5902778 47.7495754,38.0399362 Z" id="Shape"></path>
                    <path d="M54.6410384,2.73246675 C53.8426653,2.15539958 52.7256573,2.3315209 52.1457919,3.12577805 L50.2494574,5.72310687 C49.669592,6.51736402 49.8464351,7.62924505 50.6446759,8.20631223 C50.9619882,8.43548056 51.329298,8.54591837 51.6933011,8.54591837 C52.2457869,8.54591837 52.7904689,8.29174028 53.1399224,7.81313256 L55.0362569,5.21580374 C55.6161223,4.42141496 55.4392792,3.30953393 54.6410384,2.73246675 Z" id="Shape"></path>
                    <path d="M17.4341522,5.72294887 L15.5378274,3.12559579 C14.9580972,2.33159449 13.8409626,2.15547152 13.0425936,2.73228082 C12.2444891,3.30935339 12.0675147,4.42124481 12.6473771,5.21550938 L14.5437019,7.81286245 C14.893286,8.29186954 15.4379652,8.54591837 15.9905804,8.54591837 C16.3547139,8.54591837 16.7221542,8.43547953 17.039068,8.20617742 C17.8371725,7.62923649 18.014147,6.51734507 17.4341522,5.72294887 Z" id="Shape"></path>
                    <path d="M6.40892629,40.1698504 C6.1108024,39.2577645 5.12537681,38.7584512 4.2077243,39.0548501 L1.20747266,40.0241584 C0.289820151,40.3205574 -0.2121403,41.3005385 0.0859835958,42.2126244 C0.325776092,42.9467423 1.01062036,43.4132653 1.74694111,43.4132653 C1.92581545,43.4132653 2.1077939,43.3856185 2.28718559,43.3276246 L5.28743722,42.3583164 C6.2049604,42.0619174 6.70705019,41.0821934 6.40892629,40.1698504 Z" id="Shape"></path>
                    <path d="M33.8418367,60.1632653 C32.8979006,60.1632653 32.1326531,60.9675166 32.1326531,61.959564 L32.1326531,65.2037013 C32.1326531,66.1957487 32.8979006,67 33.8418367,67 C34.7857728,67 35.5510204,66.1957487 35.5510204,65.2037013 L35.5510204,61.959564 C35.5510204,60.9673836 34.7858994,60.1632653 33.8418367,60.1632653 Z" id="Shape"></path>
                    <path d="M66.4762127,40.0241228 L63.4759611,39.0547676 C62.5586966,38.7586114 61.572883,39.2575632 61.2747591,40.1699504 C60.9766352,41.0823377 61.4785957,42.0621091 62.3962482,42.3585225 L65.3964998,43.3278777 C65.5758915,43.3857458 65.7577406,43.4132653 65.9366149,43.4132653 C66.673065,43.4132653 67.3579093,42.9465911 67.5977018,42.2125662 C67.8958257,41.3003076 67.3937359,40.3205361 66.4762127,40.0241228 Z" id="Shape"></path>
                </g>
            </g>
        </g>
    </g>
</svg>