<?xml version="1.0" encoding="UTF-8"?>
<svg width="76px" height="67px" viewBox="0 0 76 67" version="1.1" xmlns="http://www.w3.org/2000/svg" xmlns:xlink="http://www.w3.org/1999/xlink">
    <!-- Generator: Sketch 48.2 (47327) - http://www.bohemiancoding.com/sketch -->
    <title>layers</title>
    <desc>Created with Sketch.</desc>
    <defs></defs>
    <g id="Home-(Blue)" stroke="none" stroke-width="1" fill="none" fill-rule="evenodd" transform="translate(-505.000000, -767.000000)">
        <g id="Features" transform="translate(128.000000, 724.000000)" fill="#FFFFFF" fill-rule="nonzero">
            <g id="Feature-Copy" transform="translate(280.000000, 0.000000)">
                <g id="layers" transform="translate(97.000000, 43.000000)">
                    <path d="M75.7097043,33.500046 C75.7097043,31.9087735 74.8207067,30.4779371 73.3890244,29.7651658 L67.7519046,26.9621676 L73.3890244,24.1593164 C73.3891723,24.1591693 73.3896159,24.1590223 73.3896159,24.1590223 C74.8210025,23.4465451 75.71,22.0155617 75.71,20.4242892 C75.71,18.8333109 74.8208546,17.4023274 73.3893201,16.6895562 L41.5649235,0.86565236 C39.241582,-0.288575295 36.4678268,-0.288575295 34.1440417,0.865799414 L2.32023655,16.6902914 C0.889145705,17.4024745 2.94967211e-07,18.8333109 2.94967211e-07,20.4244363 C2.94967211e-07,22.0157087 0.888997834,23.4465451 2.32068017,24.1593164 L7.95765209,26.9621676 L2.31994081,29.76546 C0.888997834,30.4779371 2.94967211e-07,31.9087735 2.94967211e-07,33.500046 C2.94967211e-07,35.0913184 0.888997834,36.5221548 2.32068017,37.234779 L7.95765209,40.0377773 L2.32112378,42.8404814 C0.890180799,43.551488 0.000591777029,44.9818833 2.94967211e-07,46.5733028 C-0.000591187095,48.1656046 0.888406352,49.5973233 2.32068017,50.3102416 L34.1446332,66.1344395 C35.3063039,66.7116269 36.5802084,67 37.8547044,67 C39.1292004,67 40.4036964,66.7113328 41.565515,66.1342925 L73.389468,50.3100946 C74.8211503,49.5976174 75.7102957,48.1657516 75.7097043,46.5734498 C75.7091128,44.9820303 74.8195238,43.5516351 73.3890244,42.8410696 L67.7519046,40.0380714 L73.3896159,37.234779 C74.8207067,36.5221548 75.7097043,35.0913184 75.7097043,33.500046 Z M3.87790457,21.0636805 C3.53203543,20.8914801 3.48057649,20.5892839 3.48057649,20.4245833 C3.48057649,20.2598827 3.53233117,19.9576866 3.87731308,19.7859274 L35.700231,3.96231766 C36.3749642,3.62703431 37.1150561,3.45968674 37.855148,3.45968674 C38.5949442,3.45968674 39.3348883,3.62718136 40.0091778,3.96217061 L71.8319479,19.7856333 C72.1775213,19.9576866 72.2292759,20.2598827 72.2292759,20.4245833 C72.2292759,20.5892839 72.177817,20.8914801 71.8319479,21.0636805 L40.0096214,36.886849 C38.660303,37.5571216 37.0494016,37.5571216 35.7008225,36.8869961 L3.87790457,21.0636805 Z M71.832983,45.9369997 C72.1775213,46.1081706 72.2291281,46.4097786 72.2291281,46.5746263 C72.2292759,46.739768 72.1776691,47.0425524 71.8323915,47.2143116 L40.0094736,63.0379213 C38.6601551,63.7081939 37.0492537,63.708341 35.7006746,63.0380684 L3.87790457,47.2144587 C3.53203543,47.0422583 3.48042862,46.739621 3.48057649,46.5744792 C3.48057649,46.4099257 3.53203543,46.1081706 3.87731308,45.9367056 L11.8493083,41.9727152 L34.1446332,53.0586828 C35.3063039,53.6358702 36.5802084,53.9242433 37.8545565,53.9242433 C39.1290525,53.9242433 40.4035485,53.6355761 41.5653671,53.0585358 L63.8601005,41.9727152 L71.832983,45.9369997 Z M71.8322436,34.138849 L40.0094736,49.9624587 C38.6601551,50.6327313 37.0492537,50.6328783 35.7006746,49.9626057 L3.87790457,34.1391431 C3.53203543,33.9670898 3.48057649,33.6648936 3.48057649,33.500193 C3.48057649,33.3351983 3.53203543,33.0332962 3.87731308,32.86139 L11.8493083,28.8973996 L34.1446332,39.9833672 C35.3061561,40.5605546 36.5803563,40.8489277 37.8545565,40.8489277 C39.1287568,40.8489277 40.4034006,40.5604075 41.5652193,39.9830731 L63.8602484,28.8972525 L71.8316521,32.8609488 C72.1775213,33.0331492 72.2289802,33.3351983 72.2289802,33.500046 C72.2291281,33.6647466 72.1775213,33.9669427 71.8322436,34.138849 Z" id="Shape"></path>
                </g>
            </g>
        </g>
    </g>
</svg>