<?xml version="1.0" encoding="UTF-8"?>
<svg width="70px" height="67px" viewBox="0 0 70 67" version="1.1" xmlns="http://www.w3.org/2000/svg" xmlns:xlink="http://www.w3.org/1999/xlink">
    <!-- Generator: Sketch 48.2 (47327) - http://www.bohemiancoding.com/sketch -->
    <title>library</title>
    <desc>Created with Sketch.</desc>
    <defs></defs>
    <g id="Home-(Blue)" stroke="none" stroke-width="1" fill="none" fill-rule="evenodd" transform="translate(-1068.000000, -767.000000)">
        <g id="Features" transform="translate(128.000000, 724.000000)" fill="#FFFFFF" fill-rule="nonzero">
            <g id="Feature-Copy-3" transform="translate(840.000000, 0.000000)">
                <g id="library" transform="translate(100.000000, 43.000000)">
                    <path d="M12.7465513,20.1 L8.31059153,20.1 C6.89476815,20.1 5.74285714,21.248638 5.74285714,22.6604385 L5.74285714,45.2967044 C5.74285714,46.7085049 6.89476815,47.8571429 8.31059153,47.8571429 L12.7465513,47.8571429 C14.1623747,47.8571429 15.3142857,46.7085049 15.3142857,45.2967044 L15.3142857,22.6604385 C15.3142857,21.2483699 14.1625092,20.1 12.7465513,20.1 Z M11.8906847,44.4432695 L9.16645818,44.4432695 L9.16645818,23.5138733 L11.8906847,23.5138733 L11.8906847,44.4432695 Z" id="Shape"></path>
                    <path d="M29.9751228,20.1 L25.539163,20.1 C24.1233396,20.1 22.9714286,21.248638 22.9714286,22.6604385 L22.9714286,45.2967044 C22.9714286,46.7085049 24.1233396,47.8571429 25.539163,47.8571429 L29.9751228,47.8571429 C31.3909461,47.8571429 32.5428571,46.7085049 32.5428571,45.2967044 L32.5428571,22.6604385 C32.5428571,21.2483699 31.3909461,20.1 29.9751228,20.1 Z M29.1192561,44.4432695 L26.3950296,44.4432695 L26.3950296,23.5138733 L29.1192561,23.5138733 L29.1192561,44.4432695 Z" id="Shape"></path>
                    <path d="M60.212145,43.3975486 L54.3297288,21.0798733 C53.9628013,19.6879862 52.5501437,18.8593126 51.1812322,19.2321884 L46.8911683,20.4007605 C45.5221222,20.7739099 44.7066978,22.2097211 45.0736253,23.6014714 L50.9559069,45.9191467 C51.1335827,46.5933335 51.5591971,47.1568206 52.1537382,47.505887 C52.5498745,47.73837 52.9896222,47.8571429 53.4350233,47.8571429 C53.6583295,47.8571429 53.8829817,47.8273128 54.1044035,47.7668317 L58.3943328,46.5982595 C59.7635135,46.2252469 60.5789379,44.7894357 60.212145,43.3975486 Z M54.0447744,44.1755933 L48.606144,23.5409902 L51.2407267,22.8232899 L56.6796263,43.4577561 L54.0447744,44.1755933 Z" id="Shape"></path>
                    <path d="M69.7215408,57.837153 L68.3262939,52.6262131 C68.3261575,52.6256668 68.3261575,52.6253937 68.3261575,52.624984 C68.326021,52.6245743 68.3257481,52.6241646 68.3257481,52.6237549 L55.0988785,3.22375515 C54.7985128,2.10211112 54.0797369,1.16469915 53.0749244,0.584142864 C52.0703848,0.00385972119 50.899491,-0.150600207 49.7786809,0.149988919 L38.2017071,3.25434668 C37.8234183,3.35568113 37.4684656,3.5086388 37.1387593,3.70024559 C36.3587093,2.53489938 35.0312869,1.76574083 33.5274117,1.76574083 L21.5421262,1.76574083 C20.5648802,1.76574083 19.6622821,2.09050273 18.9357275,2.63759952 C18.2093094,2.09050273 17.3065748,1.76574083 16.3293288,1.76574083 L4.34390688,1.76574083 C1.94876033,1.76574083 0,3.71595106 0,6.11301619 L0,62.6528612 C0,65.0499263 1.94876033,67 4.34390688,67 L16.3294653,67 C17.3067113,67 18.2093094,66.6752381 18.935864,66.1281413 C19.6622821,66.6752381 20.5650167,67 21.5422627,67 L33.5275481,67 C35.9228312,67 37.871455,65.0497898 37.871455,62.6528612 L37.871455,18.8166966 L48.3569592,57.9776829 C48.3570957,57.9783657 48.3570957,57.978912 48.3573686,57.9795948 C48.3575051,57.9802777 48.3579145,57.9809605 48.358051,57.9816434 L49.7530249,63.1916273 C50.0531177,64.3132713 50.7718936,65.2508198 51.7768426,65.8313761 C52.4463536,66.2181405 53.1891479,66.4156198 53.9419044,66.4156198 C54.3191014,66.4156198 54.6990278,66.3659085 55.0732225,66.2655301 L66.6501963,63.1611723 C67.7710064,62.8607198 68.7078579,62.1415456 69.2879826,61.1358489 C69.8678343,60.1302889 70.02177,58.9586605 69.7215408,57.837153 Z M17.1982193,62.6528612 C17.1982193,63.1322196 16.8083308,63.5222617 16.3294653,63.5222617 L4.34390688,63.5222617 C3.86490486,63.5222617 3.47515279,63.1322196 3.47515279,62.6528612 L3.47515279,58.9956707 L17.1982193,58.9956707 L17.1982193,62.6528612 Z M17.1982193,55.5179324 L3.47515279,55.5179324 L3.47515279,13.247945 L17.1982193,13.247945 L17.1982193,55.5179324 Z M17.1982193,9.77020666 L3.47515279,9.77020666 L3.47515279,6.11301619 C3.47515279,5.63365779 3.86490486,5.24361575 4.34390688,5.24361575 L16.3294653,5.24361575 C16.8084673,5.24361575 17.1982193,5.63365779 17.1982193,6.11301619 L17.1982193,9.77020666 Z M34.3961658,62.6528612 C34.3961658,63.1322196 34.0064137,63.5222617 33.5274117,63.5222617 L21.5421262,63.5222617 C21.0631242,63.5222617 20.6733721,63.1322196 20.6733721,62.6528612 L20.6733721,58.9956707 L34.3963022,58.9956707 L34.3963022,62.6528612 L34.3961658,62.6528612 Z M34.3963022,55.5179324 L20.6733721,55.5179324 L20.6733721,13.247945 L34.3963022,13.247945 L34.3963022,55.5179324 Z M34.3963022,9.77020666 L20.6733721,9.77020666 L20.6733721,6.11301619 C20.6733721,5.63365779 21.0631242,5.24361575 21.5421262,5.24361575 L33.5274117,5.24361575 C34.0064137,5.24361575 34.3961658,5.63365779 34.3961658,6.11301619 L34.3963022,9.77020666 Z M38.4867884,7.67823744 C38.40559,7.37573635 38.5063033,7.13496459 38.5734454,7.01847094 C38.6405876,6.90197729 38.7986173,6.69466503 39.10103,6.61354284 L50.6781402,3.50918508 C50.7531975,3.48897281 50.8283913,3.47941296 50.9026298,3.47941296 C51.2862408,3.47941296 51.6381913,3.73602676 51.7420433,4.12388369 L52.6880381,7.65652292 L39.4327832,11.2110132 L38.4867884,7.67823744 Z M51.264133,55.3997999 L40.3321061,14.5702094 L53.5874975,11.0157191 L64.5195244,51.8454462 L51.264133,55.3997999 Z M66.2780486,59.3971846 C66.2107699,59.5136783 66.0528767,59.7209905 65.750464,59.8021127 L54.1733538,62.9064705 C53.8708047,62.9874561 53.6304848,62.8868045 53.5140778,62.8197489 C53.3976708,62.7524203 53.1905126,62.5944095 53.1094507,62.2917719 L52.1634559,58.7591326 L65.4188472,55.2046423 L66.3648421,58.7372815 C66.445904,59.0399192 66.3453272,59.280691 66.2780486,59.3971846 Z" id="Shape"></path>
                </g>
            </g>
        </g>
    </g>
</svg>